<svg width="84" height="67" viewBox="0 0 84 67" fill="none" xmlns="http://www.w3.org/2000/svg">
<path d="M48.6641 25.7974C48.6641 29.1681 46.0262 31.2198 41.19 31.2198H35.0348V20.8146H42.3624C46.3193 20.8146 48.6641 22.5732 48.6641 25.7974ZM75.6295 23.8922C76.9485 28.4353 79.2933 31.3663 83.2502 31.6594V35.9094C79.2933 36.2025 76.9485 39.1335 75.483 43.6766C74.164 48.2197 74.0175 53.7887 74.164 58.0387C74.3106 62.4352 70.7933 66.5386 66.1037 66.5386H17.8883C13.1987 66.5386 9.68143 62.4352 9.97453 58.0387C10.1211 53.7887 9.82798 48.2197 8.50902 43.6766C7.0435 39.1335 4.69868 36.2025 0.888347 35.9094V31.6594C4.69868 31.3663 7.0435 28.4353 8.50902 23.8922C9.82798 19.3491 10.1211 13.7802 9.97453 9.53018C9.68143 5.13364 13.1987 0.883654 17.8883 0.883654H66.1037C70.7933 0.883654 74.3106 4.98709 74.164 9.53018C74.0175 13.7802 74.164 19.3491 75.6295 23.8922ZM43.8279 51.2973C51.4485 51.2973 55.9916 47.487 55.9916 41.3318C55.9916 36.6422 52.7675 33.2715 47.7848 32.8318V32.5387C51.4485 32.0991 54.233 28.7284 54.233 25.0646C54.233 19.7888 50.1296 16.2715 43.6813 16.2715H29.4659V51.2973H43.8279ZM42.3624 35.3232C47.6382 35.3232 50.2761 37.2284 50.2761 41.0387C50.2761 44.849 47.6382 46.7542 42.6555 46.7542H35.0348V35.3232H42.3624Z" fill="#563D7C"/>
</svg>
