<svg width="32" height="32" viewBox="0 0 32 32" fill="none" xmlns="http://www.w3.org/2000/svg">
<path d="M22.532 9.40127C22.0114 8.88067 21.1673 8.88062 20.6466 9.40116L18.0533 11.9938C16.8817 13.1652 14.9824 13.1651 13.8109 11.9936L11.2187 9.40133C10.6981 8.88071 9.85397 8.88071 9.33335 9.40133C8.81273 9.92195 8.81273 10.766 9.33335 11.2867L11.9254 13.8787C13.0969 15.0503 13.0969 16.9497 11.9254 18.1213L9.33335 20.7133C8.81273 21.234 8.81273 22.078 9.33335 22.5987C9.85397 23.1193 10.6981 23.1193 11.2187 22.5987L13.8109 20.0064C14.9824 18.8349 16.8817 18.8348 18.0533 20.0062L20.6466 22.5988C21.1673 23.1194 22.0114 23.1193 22.532 22.5987C23.0526 22.0781 23.0526 21.2339 22.532 20.7133L19.94 18.1213C18.7684 16.9497 18.7684 15.0503 19.94 13.8787L22.532 11.2867C23.0526 10.7661 23.0526 9.92193 22.532 9.40127Z" fill="#D62828"/>
</svg>
