<svg width="67" height="68" viewBox="0 0 67 68" fill="none" xmlns="http://www.w3.org/2000/svg">
<path d="M65.3361 31.0776C66.9482 32.6897 66.9482 35.3276 65.3361 36.9397L36.7586 65.5172C35.1465 67.1293 32.5086 67.1293 30.8965 65.5172L2.17241 36.7931C0.560346 35.1811 0.560346 32.5432 2.17241 30.9311L21.8103 11.1466L29.2844 18.6208C28.4051 20.819 28.9913 24.0432 32.0689 25.2156V43.2414C28.6982 44.5604 27.8189 48.9569 30.3103 51.4483C32.362 53.5 35.4396 53.5 37.4913 51.4483C39.3965 49.5431 39.8361 45.2931 36.1724 43.388V25.5087L42.9137 32.3966C40.862 37.3794 47.3103 41.7759 51.1206 37.819C54.9309 34.0087 50.974 27.8535 45.9913 29.4656L38.6637 22.2846C39.9827 18.3277 36.3189 14.5173 32.362 15.8363L24.7413 8.36217L30.7499 2.35356C32.362 0.74149 34.9999 0.74149 36.7586 2.35356L65.3361 31.0776Z" fill="#F1502F"/>
</svg>
