<svg width="69" height="68" viewBox="0 0 69 68" fill="none" xmlns="http://www.w3.org/2000/svg">
<path d="M22.8739 54.0685C22.8739 53.7913 22.5966 53.514 22.1808 53.514C21.7649 53.514 21.4876 53.7913 21.4876 54.0685C21.4876 54.3458 21.7649 54.623 22.1808 54.4844C22.5966 54.4844 22.8739 54.3458 22.8739 54.0685ZM18.5764 53.3754C18.715 53.0981 19.1309 52.9595 19.5468 53.0981C19.9627 53.2367 20.1013 53.514 20.1013 53.7913C19.9627 54.0685 19.5468 54.2071 19.2695 54.0685C18.8536 54.0685 18.5764 53.6526 18.5764 53.3754ZM24.8147 53.2367C25.092 53.0981 25.5079 53.3754 25.5079 53.6526C25.6465 53.9299 25.3692 54.0685 24.9534 54.2071C24.5375 54.3458 24.1216 54.2071 24.1216 53.9299C24.1216 53.514 24.3988 53.2367 24.8147 53.2367ZM33.8257 0.00291026C53.0952 0.00291026 68.7604 14.6977 68.7604 33.8286C68.7604 49.2165 59.3335 62.3863 45.4706 66.9611C43.6684 67.377 42.9752 66.2679 42.9752 65.2975C42.9752 64.1885 43.1139 58.366 43.1139 53.7913C43.1139 50.4641 42.0048 48.3847 40.7571 47.2757C48.5204 46.4439 56.6996 45.3348 56.6996 32.0264C56.6996 28.1447 55.3133 26.3426 53.0952 23.8472C53.3725 22.8768 54.6201 19.2724 52.6793 14.4204C49.7681 13.45 43.1139 18.1634 43.1139 18.1634C40.3413 17.3316 37.43 17.0544 34.3802 17.0544C31.469 17.0544 28.5577 17.3316 25.7851 18.1634C25.7851 18.1634 18.9923 13.5886 16.2197 14.4204C14.2789 19.2724 15.3879 22.8768 15.8038 23.8472C13.5857 26.3426 12.4767 28.1447 12.4767 32.0264C12.4767 45.3348 20.3786 46.4439 28.1418 47.2757C27.0328 48.2461 26.201 49.771 25.9238 51.9891C23.8443 52.9595 18.8536 54.4844 15.8038 49.0778C13.863 45.7507 10.3972 45.4735 10.3972 45.4735C7.07012 45.4735 10.2586 47.6915 10.2586 47.6915C12.4767 48.662 14.0016 52.6822 14.0016 52.6822C16.0811 58.9206 25.7851 56.8411 25.7851 56.8411C25.7851 59.7523 25.7851 64.4657 25.7851 65.4362C25.7851 66.2679 25.2306 67.377 23.4284 67.0997C9.56545 62.3863 0 49.2165 0 33.8286C0 14.6977 14.6948 0.00291026 33.8257 0.00291026ZM13.4471 47.8302C13.5857 47.6915 13.863 47.8302 14.1402 47.9688C14.4175 48.2461 14.4175 48.662 14.2789 48.8006C14.0016 48.9392 13.7243 48.8006 13.4471 48.662C13.3085 48.3847 13.1698 47.9688 13.4471 47.8302ZM11.9222 46.7211C12.0608 46.5825 12.1994 46.5825 12.4767 46.7211C12.7539 46.8598 12.8926 46.9984 12.8926 47.137C12.7539 47.4143 12.4767 47.4143 12.1994 47.2757C11.9222 47.137 11.7835 46.9984 11.9222 46.7211ZM16.3583 51.7118C16.6356 51.4345 17.0515 51.5732 17.3287 51.8504C17.606 52.1277 17.606 52.5436 17.4673 52.6822C17.3287 52.9595 16.9128 52.8208 16.6356 52.5436C16.2197 52.2663 16.2197 51.8504 16.3583 51.7118ZM14.8334 49.6324C15.1106 49.4937 15.3879 49.6324 15.6652 49.9096C15.8038 50.1869 15.8038 50.6028 15.6652 50.7414C15.3879 50.88 15.1106 50.7414 14.8334 50.4641C14.5561 50.1869 14.5561 49.771 14.8334 49.6324Z" fill="#232121"/>
</svg>
