<svg width="67" height="67" viewBox="0 0 67 67" fill="none" xmlns="http://www.w3.org/2000/svg">
<path d="M0.71244 0.869616H66.3674V66.5246H0.71244V0.869616ZM36.3244 52.1626V31.0592H30.1693V52.016C30.1693 55.0936 28.8503 55.9729 26.9451 55.9729C24.7469 55.9729 23.8675 54.5074 22.9882 52.7488L17.8589 55.8264C19.3245 58.9039 22.2555 61.3953 27.0917 61.3953C32.6606 61.3953 36.3244 58.4643 36.3244 52.1626ZM50.9795 61.3953C56.8416 61.3953 61.2381 58.4643 61.2381 52.8953C61.2381 47.766 58.3071 45.4212 53.0313 43.2229L51.4192 42.4902C48.7813 41.3178 47.6089 40.585 47.6089 38.6799C47.6089 37.2143 48.7813 36.0419 50.5399 36.0419C52.4451 36.0419 53.4709 36.9212 54.6433 38.6799L59.333 35.6023C57.4278 32.085 54.4968 30.7661 50.6864 30.7661C45.1175 30.7661 41.6003 34.2833 41.6003 38.8264C41.6003 43.9557 44.5313 46.3005 48.9278 48.2057L50.5399 48.7919C53.3244 50.1109 55.083 50.8436 55.083 52.8953C55.083 54.6539 53.3244 55.9729 50.833 55.9729C47.7554 55.9729 46.1433 54.3608 44.8244 52.3091L39.6951 55.0936C41.6003 58.7574 45.264 61.3953 50.9795 61.3953Z" fill="#F0DB4F"/>
</svg>
