<svg width="161" height="34" viewBox="0 0 161 34" fill="none" xmlns="http://www.w3.org/2000/svg">
<path d="M7.56 6.28L11.624 15.56L15.784 6.28H22.568L14.728 21.48V29H8.52V21.416L0.808 6.28H7.56ZM29.1678 29.32C27.6958 29.32 26.3838 29.096 25.2318 28.648C24.0798 28.1787 23.1091 27.5493 22.3198 26.76C21.5518 25.9707 20.9651 25.064 20.5598 24.04C20.1544 23.016 19.9518 21.9387 19.9518 20.808C19.9518 19.1867 20.3038 17.704 21.0078 16.36C21.7118 14.9947 22.7464 13.9067 24.1118 13.096C25.4771 12.264 27.1624 11.848 29.1678 11.848C31.1731 11.848 32.8584 12.2533 34.2238 13.064C35.5891 13.8747 36.6238 14.9413 37.3278 16.264C38.0318 17.5867 38.3838 19.0267 38.3838 20.584C38.3838 20.904 38.3624 21.2347 38.3198 21.576C38.2984 21.896 38.2664 22.184 38.2238 22.44H26.4158C26.4584 23.0373 26.6184 23.528 26.8958 23.912C27.1944 24.2747 27.5571 24.5413 27.9838 24.712C28.4318 24.8827 28.8904 24.968 29.3598 24.968C30.0211 24.968 30.6398 24.8187 31.2158 24.52C31.8131 24.2213 32.2078 23.8053 32.3998 23.272L37.5518 24.744C37.1038 25.64 36.4744 26.4293 35.6638 27.112C34.8744 27.7947 33.9358 28.3387 32.8478 28.744C31.7598 29.128 30.5331 29.32 29.1678 29.32ZM26.2878 18.792H31.8558C31.7918 18.2373 31.6318 17.768 31.3758 17.384C31.1411 17 30.8211 16.7013 30.4158 16.488C30.0318 16.2747 29.5838 16.168 29.0718 16.168C28.5598 16.168 28.1011 16.2747 27.6958 16.488C27.3118 16.7013 26.9918 17 26.7358 17.384C26.5011 17.768 26.3518 18.2373 26.2878 18.792ZM47.1318 29.32C45.6598 29.32 44.2091 29.0853 42.7798 28.616C41.3718 28.1253 40.1771 27.4213 39.1958 26.504L41.2758 22.76C42.3211 23.4427 43.3238 23.976 44.2838 24.36C45.2651 24.744 46.1504 24.936 46.9398 24.936C47.3878 24.936 47.7184 24.8827 47.9318 24.776C48.1451 24.648 48.2517 24.4453 48.2517 24.168C48.2517 23.976 48.1771 23.816 48.0278 23.688C47.8784 23.56 47.6331 23.432 47.2917 23.304C46.9718 23.176 46.5558 23.0373 46.0438 22.888C44.7211 22.4187 43.6118 21.9813 42.7158 21.576C41.8411 21.1707 41.1798 20.68 40.7318 20.104C40.3051 19.5067 40.0918 18.7173 40.0918 17.736C40.0918 16.584 40.3798 15.5707 40.9557 14.696C41.5318 13.8 42.3531 13.096 43.4198 12.584C44.5078 12.072 45.8091 11.816 47.3238 11.816C48.4544 11.816 49.5851 11.9973 50.7158 12.36C51.8678 12.7013 52.9771 13.3307 54.0438 14.248L51.7398 17.96C50.6731 17.2987 49.7664 16.8293 49.0198 16.552C48.2944 16.2747 47.6438 16.136 47.0677 16.136C46.7904 16.136 46.5451 16.168 46.3318 16.232C46.1398 16.296 45.9904 16.392 45.8838 16.52C45.7771 16.648 45.7238 16.8187 45.7238 17.032C45.7238 17.2453 45.7984 17.4267 45.9478 17.576C46.0971 17.704 46.3318 17.832 46.6518 17.96C46.9718 18.0667 47.3771 18.1947 47.8678 18.344C49.3184 18.7707 50.5024 19.208 51.4198 19.656C52.3371 20.0827 53.0091 20.6053 53.4358 21.224C53.8838 21.8427 54.1078 22.6533 54.1078 23.656C54.1078 25.4267 53.4784 26.8133 52.2198 27.816C50.9824 28.8187 49.2864 29.32 47.1318 29.32ZM56.6083 29V6.28H65.3443C67.8616 6.28 69.9629 6.792 71.6483 7.816C73.3549 8.81867 74.6349 10.184 75.4883 11.912C76.3629 13.6187 76.8003 15.5173 76.8003 17.608C76.8003 19.912 76.3203 21.9173 75.3603 23.624C74.4216 25.3307 73.0883 26.6533 71.3603 27.592C69.6536 28.5307 67.6483 29 65.3443 29H56.6083ZM70.4643 17.608C70.4643 16.4347 70.2616 15.4107 69.8563 14.536C69.4509 13.64 68.8643 12.9467 68.0963 12.456C67.3283 11.9653 66.4109 11.72 65.3443 11.72H62.8483V23.56H65.3443C66.4323 23.56 67.3496 23.304 68.0963 22.792C68.8643 22.28 69.4509 21.576 69.8563 20.68C70.2616 19.7627 70.4643 18.7387 70.4643 17.608ZM87.3865 29.32C85.9145 29.32 84.6025 29.096 83.4505 28.648C82.2985 28.1787 81.3278 27.5493 80.5385 26.76C79.7705 25.9707 79.1838 25.064 78.7785 24.04C78.3732 23.016 78.1705 21.9387 78.1705 20.808C78.1705 19.1867 78.5225 17.704 79.2265 16.36C79.9305 14.9947 80.9652 13.9067 82.3305 13.096C83.6958 12.264 85.3812 11.848 87.3865 11.848C89.3918 11.848 91.0772 12.2533 92.4425 13.064C93.8078 13.8747 94.8425 14.9413 95.5465 16.264C96.2505 17.5867 96.6025 19.0267 96.6025 20.584C96.6025 20.904 96.5812 21.2347 96.5385 21.576C96.5172 21.896 96.4852 22.184 96.4425 22.44H84.6345C84.6772 23.0373 84.8372 23.528 85.1145 23.912C85.4132 24.2747 85.7758 24.5413 86.2025 24.712C86.6505 24.8827 87.1092 24.968 87.5785 24.968C88.2398 24.968 88.8585 24.8187 89.4345 24.52C90.0318 24.2213 90.4265 23.8053 90.6185 23.272L95.7705 24.744C95.3225 25.64 94.6932 26.4293 93.8825 27.112C93.0932 27.7947 92.1545 28.3387 91.0665 28.744C89.9785 29.128 88.7518 29.32 87.3865 29.32ZM84.5065 18.792H90.0745C90.0105 18.2373 89.8505 17.768 89.5945 17.384C89.3598 17 89.0398 16.7013 88.6345 16.488C88.2505 16.2747 87.8025 16.168 87.2905 16.168C86.7785 16.168 86.3198 16.2747 85.9145 16.488C85.5305 16.7013 85.2105 17 84.9545 17.384C84.7198 17.768 84.5705 18.2373 84.5065 18.792ZM102.227 29L96.5633 12.168H102.803L105.811 23.592L108.851 12.168H114.515L108.851 29H102.227ZM138.281 33L134.469 31.875C134.094 31.75 133.844 31.375 133.969 30.9375L142.531 1.5625C142.656 1.1875 143.031 0.9375 143.469 1.0625L147.281 2.1875C147.656 2.25 147.906 2.6875 147.781 3.125L139.219 32.5C139.094 32.875 138.719 33.125 138.281 33ZM131.156 26C130.906 26.3125 130.406 26.3125 130.094 26L121.094 17.5625C120.781 17.25 120.781 16.75 121.094 16.5L130.094 8.0625C130.406 7.75 130.906 7.75 131.156 8.0625L133.906 11C134.219 11.25 134.156 11.75 133.844 12.0625L128.219 17L133.844 22C134.156 22.3125 134.219 22.75 133.906 23.0625L131.156 26ZM151.656 26C151.344 26.3125 150.844 26.3125 150.594 26L147.844 23.0625C147.531 22.75 147.594 22.3125 147.906 22L153.594 17L147.906 12.0625C147.594 11.75 147.594 11.25 147.844 10.9375L150.594 8.0625C150.844 7.75 151.344 7.75 151.656 8.0625L160.656 16.5C160.969 16.75 160.969 17.3125 160.656 17.5625L151.656 26Z" fill="#D62828"/>
</svg>
